PathFileType	4	(X/Y/Z)	C:/Users/opensim2020/Desktop/walking_exp_matlab/subject03_walking06_straight_01.trc	
DataRate	CameraRate	NumFrames	NumMarkers	Units	OrigDataRate	OrigDataStartFrame	OrigNumFrames	
100.00	100.00	4	44	mm	100.00	759	362	
Frame#	Time	LFHD			RFHD			LBHD			RBHD			C7			T10			CLAV			STRN			RBAK			LSHO			LUPA			LELB			LFRM			LWRA			LWRB			LFIN			RSHO			RUPA			RELB			RFRM			RWRA			RWRB			RFIN			LASI			RASI			LPSI			RPSI			LTHI			LKNE			LTIB			LANK			LHEE			LTOE			RTHI			RKNE			RTIB			RANK			RHEE			RTOE			*39			*40			*41			*42			*43			
		X1	Y1	Z1	X2	Y2	Z2	X3	Y3	Z3	X4	Y4	Z4	X5	Y5	Z5	X6	Y6	Z6	X7	Y7	Z7	X8	Y8	Z8	X9	Y9	Z9	X10	Y10	Z10	X11	Y11	Z11	X12	Y12	Z12	X13	Y13	Z13	X14	Y14	Z14	X15	Y15	Z15	X16	Y16	Z16	X17	Y17	Z17	X18	Y18	Z18	X19	Y19	Z19	X20	Y20	Z20	X21	Y21	Z21	X22	Y22	Z22	X23	Y23	Z23	X24	Y24	Z24	X25	Y25	Z25	X26	Y26	Z26	X27	Y27	Z27	X28	Y28	Z28	X29	Y29	Z29	X30	Y30	Z30	X31	Y31	Z31	X32	Y32	Z32	X33	Y33	Z33	X34	Y34	Z34	X35	Y35	Z35	X36	Y36	Z36	X37	Y37	Z37	X38	Y38	Z38	X39	Y39	Z39	X40	Y40	Z40	X41	Y41	Z41	X42	Y42	Z42	X43	Y43	Z43	X44	Y44	Z44	

317	3.160	1410.11719	1161.74670	1623.56665	1543.44446	1171.95947	1626.73303	1424.35706	1032.05688	1586.01843	1554.41077	1046.94531	1588.73560	1483.67249	1001.66870	1426.87073	1484.65332	957.26855	1113.91760	1471.11230	1120.19324	1346.23364	1459.98596	1158.23438	1180.65125	1583.69263	953.74475	1251.68311	1321.72852	1062.58228	1387.12439	1249.68921	1052.31372	1191.27332	1235.15979	1065.15039	1069.24060	1228.38525	1096.23279	942.67139	1251.61609	1121.79980	823.84839	1203.31165	1094.03418	831.14838	1207.23364	1110.66907	747.59607	1633.82471	1090.53162	1370.73035	1707.26013	1115.95923	1150.62695	1717.82837	1147.12537	1042.39673	1714.22034	1188.45386	912.09723	1671.12329	1230.14197	824.63867	1718.63306	1206.39197	813.24280	1703.83167	1241.08850	748.40234	1351.25732	1111.36597	949.40137	1586.95105	1134.65894	946.76935	1414.09485	954.72607	966.27838	1561.93188	970.65686	978.89819	1294.44324	1125.53638	653.69604	1315.80005	1187.30554	484.73370	1328.05432	1095.26624	308.05963	1376.49792	1024.09961	113.78504	1422.18030	980.14709	88.20148	1378.14929	1154.71423	47.73790	1624.05823	1071.97522	652.20929	1585.29700	1075.01758	472.89642	1586.92444	1022.49591	289.01828	1534.53943	988.93445	75.53461	1484.13794	945.21997	43.73983	1522.90210	1130.61853	36.81851	1470.46765	1086.50452	1687.53259												 
318	3.170	1408.87671	1170.52856	1622.64124	1542.15894	1181.02625	1626.22131	1423.46143	1040.89014	1585.16016	1553.48315	1056.04773	1588.31165	1483.63721	1010.26422	1426.48181	1484.78406	965.70056	1113.26746	1470.29150	1128.68909	1345.40137	1459.51587	1166.64111	1179.87549	1583.99365	962.63104	1251.42932	1321.16333	1070.80347	1386.29407	1249.05554	1058.58447	1190.19055	1234.31689	1069.63757	1068.11182	1227.19934	1099.23669	941.20276	1250.20874	1123.82056	822.17175	1202.12048	1095.73120	829.75043	1206.06128	1111.48730	746.02124	1633.23889	1099.95117	1370.26794	1707.02197	1127.03076	1150.59009	1717.39478	1158.77771	1042.55518	1713.67212	1202.05762	912.97937	1670.32043	1244.84583	826.35419	1717.67517	1221.20862	814.28241	1702.52966	1256.68005	749.90070	1351.41907	1120.09241	949.00153	1587.15503	1142.83032	946.15649	1413.66565	962.89630	965.50018	1561.85583	978.90027	978.32355	1294.61646	1136.44568	653.86584	1317.10327	1199.15552	485.46509	1328.66553	1114.63086	304.75510	1376.30945	1053.41199	106.74508	1421.64355	1010.82861	78.74309	1376.58643	1187.32935	47.55276	1624.01807	1077.92468	651.70087	1585.43860	1079.09766	472.44601	1587.01025	1024.73181	289.01791	1534.47888	989.09717	75.82864	1484.11621	945.62610	44.11354	1523.01855	1130.67285	36.93492	1470.91577	1095.28943	1687.47107												 
319	3.180	1407.52649	1179.28857	1621.65442	1540.83057	1190.06079	1625.63538	1422.53345	1049.58997	1584.14929	1552.53064	1065.12329	1587.73352	1483.26904	1019.15442	1425.74597	1484.79236	974.29254	1112.84314	1469.71533	1137.40344	1344.57263	1459.02063	1175.10815	1178.98828	1584.14050	971.54449	1251.05505	1320.61841	1079.08997	1385.30847	1248.53394	1064.85083	1189.18042	1233.44995	1074.40723	1067.09045	1226.10291	1102.44348	939.80237	1248.74658	1126.10388	820.59308	1201.04590	1097.59204	828.33313	1204.96729	1112.66077	744.43054	1632.61987	1109.33655	1369.67847	1706.80762	1138.07434	1150.49268	1717.08032	1170.74854	1042.75293	1713.02649	1215.56592	913.75708	1669.23401	1259.22949	827.77545	1716.63708	1235.89087	815.21094	1701.15491	1272.13550	751.32343	1351.43994	1128.79382	948.21277	1587.41113	1150.87549	945.50299	1413.34741	971.65924	964.80011	1561.50293	987.03217	977.58185	1294.71338	1147.10083	653.76605	1318.36780	1210.48230	485.72989	1329.21436	1133.97510	301.44904	1375.96252	1083.49402	100.17506	1421.35950	1042.34766	69.90579	1375.32019	1220.06323	47.82878	1624.04626	1083.94226	651.22394	1585.53235	1083.28162	472.03162	1587.27209	1027.31799	289.13205	1534.41382	989.33112	76.18321	1484.00977	945.72107	44.64773	1523.13184	1130.72192	37.01507	1467.84753	1104.28015	1686.06665												 
320	3.190	1406.15723	1188.04907	1620.58508	1539.46472	1199.07080	1624.97778	1421.55481	1058.39063	1583.06897	1551.54224	1074.15979	1587.01550	1482.81958	1028.12415	1424.98584	1484.61108	982.68616	1112.13049	1469.04565	1146.15784	1343.62451	1458.52429	1183.51111	1177.93542	1584.19446	980.40344	1250.58740	1319.96912	1087.25049	1384.26465	1247.83313	1071.25415	1188.08508	1232.65515	1078.93542	1065.90076	1225.04700	1105.66101	938.37317	1247.10205	1128.70593	819.14496	1200.03833	1099.65344	826.87982	1204.03882	1114.09558	742.85565	1631.95862	1118.68994	1368.94360	1706.41272	1149.07312	1150.16650	1716.63623	1182.64539	1042.77051	1711.69702	1228.64355	913.90869	1668.02222	1273.39063	829.01526	1715.46252	1250.45215	816.01978	1699.68274	1287.44385	752.71710	1351.67346	1137.60510	947.39502	1587.66321	1158.95361	944.79211	1413.03796	980.26489	963.79736	1561.13928	995.10669	976.83636	1294.91809	1157.35620	653.24384	1319.74182	1221.44568	485.72543	1329.82898	1153.13770	298.13504	1375.81702	1113.25562	94.19662	1421.51196	1074.15015	61.91415	1374.47363	1252.56787	48.26447	1624.05566	1090.11951	650.72632	1585.64819	1087.65894	471.62280	1587.23779	1029.67761	289.08261	1534.32214	989.55304	76.55721	1483.66809	945.68054	45.19542	1523.30701	1130.99878	37.20552	1469.49658	1112.70801	1685.96692												 
